<svg xmlns="http://www.w3.org/2000/svg" xmlns:xlink="http://www.w3.org/1999/xlink" width="116.927" height="94.404" viewBox="0 0 116.927 94.404">
  <defs>
    <radialGradient id="radial-gradient" cx="0.5" cy="0.5" r="0.644" gradientUnits="objectBoundingBox">
      <stop offset="0" stop-color="#fffcd7"/>
      <stop offset="0.053" stop-color="#fcf7ce"/>
      <stop offset="0.359" stop-color="#eedc9e"/>
      <stop offset="0.63" stop-color="#e5c97c"/>
      <stop offset="0.853" stop-color="#dfbe67"/>
      <stop offset="1" stop-color="#ddba60"/>
    </radialGradient>
  </defs>
  <g id="Group_40" data-name="Group 40" transform="translate(-322.63 -21.516)">
    <path id="Path_520" data-name="Path 520" d="M322.63,98.139c4.276-5.632,8.29-10.912,12.295-16.2q15.224-20.093,30.443-40.187,7.26-9.569,14.575-19.094c1.157-1.516,1.162-1.522,2.284-.043q17.063,22.471,34.121,44.945,9.271,12.211,18.55,24.417c1.484,1.954,2.96,3.914,4.659,6.161a65.642,65.642,0,0,0-7.77.059c-3.488.432-5.544-.932-7.623-3.737-10.338-13.941-20.943-27.684-31.442-41.506q-5.254-6.917-10.436-13.888c-.685-.926-1.016-.981-1.737-.009-3.45,4.647-6.977,9.237-10.476,13.849q-8.13,10.718-16.258,21.436Q348,82.013,342.183,89.678q-2.9,3.81-5.807,7.608c-.315.413-.562.865-1.215.862C331.121,98.13,327.082,98.139,322.63,98.139Z" fill="url(#radial-gradient)"/>
    <path id="Path_521" data-name="Path 521" d="M345.8,98.2c12.177-16.051,24.161-31.846,36.281-47.819L418.37,98.194c-4.213,0-8.137-.006-12.06,0-.808,0-1.016-.7-1.37-1.162q-10.721-14.076-21.4-28.183c-1.134-1.495-1.136-1.5-2.257-.022q-10.7,14.094-21.377,28.2a2.556,2.556,0,0,1-2.334,1.191C353.775,98.149,349.978,98.2,345.8,98.2Z" fill="#00497b"/>
    <g id="Group_25" data-name="Group 25">
      <path id="Path_522" data-name="Path 522" d="M340.452,115.485c1.911-.387,1.815-1.749,1.788-3.12-.037-1.789-.007-3.58-.01-5.37,0-1.283.277-2.734-2.146-2.625a2.461,2.461,0,0,1,2.289-.493c1.838.107,3.654-.422,5.509-.093,3.619.642,5.474,2.837,5.2,6.286a6.2,6.2,0,0,1-6.413,5.693C344.641,115.662,342.613,115.574,340.452,115.485Zm3.691-6.021v2.684c0,2.523,1.1,3.326,3.585,2.606,3.163-.918,4.283-5.653,2.027-8.573a4.839,4.839,0,0,0-4.813-1.658.987.987,0,0,0-.8,1.152C344.156,106.938,344.143,108.2,344.143,109.464Z" fill="#00497b"/>
      <path id="Path_523" data-name="Path 523" d="M335.347,109.79a6.048,6.048,0,0,1-6.579,6.088,5.983,5.983,0,0,1-5.811-6.2,6.117,6.117,0,0,1,6.6-6.089A5.957,5.957,0,0,1,335.347,109.79Zm-2.259.6a7.275,7.275,0,0,0-1.345-4.574,3.5,3.5,0,0,0-3.655-1.272,3.135,3.135,0,0,0-2.535,2.317,7.854,7.854,0,0,0,.717,6.368,3.383,3.383,0,0,0,3.257,1.8C331.8,114.958,333.082,113.289,333.088,110.389Z" fill="#00497b"/>
      <path id="Path_524" data-name="Path 524" d="M413.847,103.9h5.118a2.568,2.568,0,0,0-1.768,2.974c.086,1.471-.014,2.951.032,4.425a3.181,3.181,0,0,0,3.228,3.356,3.048,3.048,0,0,0,3.435-3.1c.136-1.884,0-3.787.036-5.682.016-.912-.619-1.337-1.691-1.965h4.271c-1.541.6-1.394,1.923-1.445,3.14-.058,1.418-.053,2.84-.146,4.256a4.671,4.671,0,0,1-4.7,4.572c-2.953.053-4.749-1.411-5.03-4.286a35.641,35.641,0,0,1-.05-4.737C415.184,105.657,415.134,104.581,413.847,103.9Z" fill="#00497b"/>
      <path id="Path_525" data-name="Path 525" d="M399.6,103.876h5.3c.369,0,.738.013,1.106,0,2.117-.094,2.266.085,1.829,2.64-.468-2.188-2.014-2.062-3.562-2-.732.029-1.058.329-1.045,1.052s-.044,1.477.017,2.208c.042.509-.353,1.328.477,1.429.772.093,1.7.393,2.325-.486.168-.236.1-.666.651-.7V111.5c-.6-1.32-1.441-1.89-2.7-1.605-.3.067-.708-.039-.718.4-.029,1.312-.045,2.627.012,3.937.022.511.516.589.958.616,1.723.107,3.432.183,4.159-2.368.444,2.623-.02,3.273-1.963,3.2-2.294-.088-4.589-.107-7.082-.16,2.332-.474,1.823-2.162,1.838-3.594.018-1.684-.024-3.368.014-5.051.028-1.261.1-2.493-1.787-2.617Z" fill="#00497b"/>
      <path id="Path_526" data-name="Path 526" d="M373.684,112.173c.87.309.772,1.083,1.108,1.571a2.531,2.531,0,0,0,2.462,1.372,1.844,1.844,0,0,0,1.624-1.518,2.274,2.274,0,0,0-1.185-2.531,30,30,0,0,1-2.615-1.751,3.008,3.008,0,0,1-.436-4.46c1.17-1.323,4.287-1.773,5.375-.721a2.922,2.922,0,0,1,.543,2.233c0,.1-.2.279-.3.278-.375,0-.514-.326-.633-.611a2.139,2.139,0,0,0-2.231-1.62,1.546,1.546,0,0,0-1.525.912,1.641,1.641,0,0,0,.348,2.028c.777.62,1.634,1.141,2.461,1.7,2.113,1.426,2.71,3.258,1.654,5.092-.948,1.648-3.722,2.29-5.646,1.311C373.213,114.706,373.543,113.476,373.684,112.173Z" fill="#00497b"/>
      <path id="Path_527" data-name="Path 527" d="M387,112.2a17.537,17.537,0,0,0,1.038,1.891,2.192,2.192,0,0,0,2.314,1,1.862,1.862,0,0,0,1.5-1.461,2.1,2.1,0,0,0-.9-2.349c-.723-.521-1.512-.951-2.252-1.45-1.911-1.288-2.412-3.133-1.3-4.705,1.061-1.5,4-2.115,5.443-1.1.8.563.641,1.49.7,2.312a.426.426,0,0,1-.275.314c-.378.018-.53-.3-.653-.583-.4-.915-.894-1.663-2.05-1.652-.8.007-1.493.2-1.765,1.026a1.656,1.656,0,0,0,.482,2c.757.564,1.56,1.066,2.345,1.592,2.124,1.423,2.734,3.241,1.7,5.081-.93,1.659-3.686,2.32-5.635,1.356C386.21,114.741,386.513,113.5,387,112.2Z" fill="#00497b"/>
      <path id="Path_528" data-name="Path 528" d="M431.439,111.93c1.009.716.982,1.5,1.4,2.031a2.431,2.431,0,0,0,2.421,1.135,1.846,1.846,0,0,0,1.513-1.441,2.155,2.155,0,0,0-1-2.456c-.821-.567-1.71-1.04-2.507-1.635a3.11,3.11,0,0,1-.856-4.543c1.12-1.445,4.229-1.994,5.469-.922.663.574.55,1.435.6,2.211a.431.431,0,0,1-.256.331c-.39.054-.542-.275-.665-.551-.377-.845-.8-1.614-1.877-1.667-.842-.041-1.624.094-1.94.994a1.705,1.705,0,0,0,.57,2.119c.854.61,1.758,1.152,2.609,1.767,1.958,1.414,2.39,3.517,1.1,5.188a4.715,4.715,0,0,1-5.9.661C431.139,114.326,431.592,113.271,431.439,111.93Z" fill="#00497b"/>
      <path id="Path_529" data-name="Path 529" d="M363.591,109.234a13.462,13.462,0,0,0,2.251-3.719c.575-1.162-.987-.768-1.146-1.435a12.612,12.612,0,0,1,4.407-.029c-2.692,1.059-3.485,3.583-4.7,5.7-.737,1.285-.4,2.878-.193,4.328.133.937,1.228.832,2.116,1.488h-6.192c2.007-1.215,2.765-3.1,1.8-5.206-1.075-2.349-2.227-4.733-4.668-6.431h5.587c-2.252.826-1.226,1.845-.7,2.811C362.6,107.55,363.079,108.344,363.591,109.234Z" fill="#00497b"/>
    </g>
  </g>
</svg>
