<?xml version="1.0" encoding="utf-8"?>
<!-- Generator: Adobe Illustrator 27.0.1, SVG Export Plug-In . SVG Version: 6.00 Build 0)  -->
<svg version="1.1" id="Layer_1" xmlns="http://www.w3.org/2000/svg" xmlns:xlink="http://www.w3.org/1999/xlink" x="0px" y="0px"
	 viewBox="0 0 118 119.98" style="enable-background:new 0 0 118 119.98;" xml:space="preserve">
<style type="text/css">
	.st0{fill:#00497B;}
	.st1{fill:none;stroke:#FFFFFF;stroke-width:1.8289;stroke-linecap:round;stroke-linejoin:round;stroke-miterlimit:10;}
	.st2{fill:none;stroke:#FFFFFF;stroke-width:1.9098;stroke-linecap:round;stroke-linejoin:round;stroke-miterlimit:10;}
	.st3{fill:none;stroke:#FFFFFF;stroke-width:2.1655;stroke-linecap:round;stroke-linejoin:round;stroke-miterlimit:10;}
	.st4{fill:none;stroke:#FFFFFF;stroke-width:1.9653;stroke-linecap:round;stroke-linejoin:round;stroke-miterlimit:10;}
	.st5{fill:none;stroke:#FFFFFF;stroke-width:1.9653;stroke-linejoin:round;stroke-miterlimit:10;}
</style>
<polygon class="st0" points="118,0.55 0,0 0,119.98 "/>
<g>
	<path class="st3" d="M19.85,45.53v4.98c0,2.39,1.94,4.33,4.33,4.33h8.66c2.39,0,4.33-1.94,4.33-4.33v-4.99
		c0-1.22,0.51-2.38,1.42-3.19c3.47-3.08,5.49-7.73,5-12.84c-0.68-7-6.34-12.75-13.33-13.54c-9.17-1.03-16.92,6.1-16.92,15.06
		c0,4.52,1.96,8.57,5.1,11.34C19.36,43.16,19.85,44.33,19.85,45.53z"/>
	<path class="st3" d="M29.29,65.68h-1.56c-2.06,0-3.84-1.46-4.25-3.48l-1.47-7.35h12.99l-1.47,7.35
		C33.13,64.22,31.36,65.68,29.29,65.68z"/>
	<line class="st3" x1="28.51" y1="37.52" x2="28.51" y2="54.85"/>
	<line class="st3" x1="35.01" y1="31.03" x2="28.51" y2="37.52"/>
	<line class="st3" x1="22.01" y1="31.03" x2="28.51" y2="37.52"/>
</g>
</svg>
