<?xml version="1.0" encoding="utf-8"?>
<!-- Generator: Adobe Illustrator 27.1.1, SVG Export Plug-In . SVG Version: 6.00 Build 0)  -->
<svg version="1.1" id="Layer_1" xmlns="http://www.w3.org/2000/svg" xmlns:xlink="http://www.w3.org/1999/xlink" x="0px" y="0px"
	 viewBox="0 0 118 119.98" style="enable-background:new 0 0 118 119.98;" xml:space="preserve">
<style type="text/css">
	.st0{fill:#00497B;}
	.st1{fill:none;stroke:#FFFFFF;stroke-width:1.8289;stroke-linecap:round;stroke-linejoin:round;stroke-miterlimit:10;}
	.st2{fill:none;stroke:#FFFFFF;stroke-width:1.9098;stroke-linecap:round;stroke-linejoin:round;stroke-miterlimit:10;}
	.st3{fill:none;stroke:#FFFFFF;stroke-width:2.1655;stroke-linecap:round;stroke-linejoin:round;stroke-miterlimit:10;}
	.st4{fill:none;stroke:#FFFFFF;stroke-width:1.9653;stroke-linecap:round;stroke-linejoin:round;stroke-miterlimit:10;}
	.st5{fill:none;stroke:#FFFFFF;stroke-width:1.9653;stroke-linejoin:round;stroke-miterlimit:10;}
</style>
<polygon class="st0" points="0,0.55 118,0 118,119.98 "/>
<g>
	<path class="st3" d="M79.95,42.83v4.98c0,2.39,1.94,4.33,4.33,4.33h8.66c2.39,0,4.33-1.94,4.33-4.33v-4.99
		c0-1.22,0.51-2.38,1.42-3.19c3.47-3.08,5.49-7.73,5-12.84c-0.68-7-6.34-12.75-13.33-13.54c-9.17-1.03-16.92,6.1-16.92,15.06
		c0,4.52,1.96,8.57,5.1,11.34C79.46,40.46,79.95,41.63,79.95,42.83z"/>
	<path class="st3" d="M89.39,62.98h-1.56c-2.06,0-3.84-1.46-4.25-3.48l-1.47-7.35h12.99l-1.47,7.35
		C93.23,61.52,91.45,62.98,89.39,62.98z"/>
	<line class="st3" x1="88.61" y1="34.82" x2="88.61" y2="52.15"/>
	<line class="st3" x1="95.11" y1="28.33" x2="88.61" y2="34.82"/>
	<line class="st3" x1="82.11" y1="28.33" x2="88.61" y2="34.82"/>
</g>
</svg>
