<?xml version="1.0" encoding="utf-8"?>
<!-- Generator: Adobe Illustrator 27.1.1, SVG Export Plug-In . SVG Version: 6.00 Build 0)  -->
<svg version="1.1" id="Layer_1" xmlns="http://www.w3.org/2000/svg" xmlns:xlink="http://www.w3.org/1999/xlink" x="0px" y="0px"
	 viewBox="0 0 118 119.98" style="enable-background:new 0 0 118 119.98;" xml:space="preserve">
<style type="text/css">
	.st0{fill:#00497B;}
	.st1{fill:none;stroke:#FFFFFF;stroke-width:1.8289;stroke-linecap:round;stroke-linejoin:round;stroke-miterlimit:10;}
	.st2{fill:none;stroke:#FFFFFF;stroke-width:1.9098;stroke-linecap:round;stroke-linejoin:round;stroke-miterlimit:10;}
	.st3{fill:none;stroke:#FFFFFF;stroke-width:2.1655;stroke-linecap:round;stroke-linejoin:round;stroke-miterlimit:10;}
	.st4{fill:none;stroke:#FFFFFF;stroke-width:1.9653;stroke-linecap:round;stroke-linejoin:round;stroke-miterlimit:10;}
	.st5{fill:none;stroke:#FFFFFF;stroke-width:1.9653;stroke-linejoin:round;stroke-miterlimit:10;}
</style>
<polygon class="st0" points="0,0.55 118,0 118,119.98 "/>
<g>
	<path class="st2" d="M84.4,13.17c-4.72,3.82-10.63,4.63-17.19,3.82v14.6c0,7.66,3.54,14.89,9.59,19.6l7.6,5.91l7.6-5.91
		c6.05-4.7,9.58-11.94,9.58-19.6v-14.6C95.03,17.8,89.12,16.99,84.4,13.17z"/>
	<path class="st2" d="M84.4,19.1c-3.45,2.79-6.67,4.21-11.46,3.62v9.14c0,5.1,2.27,9.94,6.18,13.2l5.27,4.4l5.27-4.4
		c3.92-3.27,6.18-8.1,6.18-13.2v-9.14C91.07,23.31,87.85,21.89,84.4,19.1z"/>
</g>
</svg>
