<svg xmlns="http://www.w3.org/2000/svg" width="40.209" height="44.1" viewBox="0 0 40.209 44.1">
  <g id="Group_9" data-name="Group 9" transform="translate(-1024.088 -1708.984)">
    <g id="Group_5" data-name="Group 5">
      <path id="Path_512" data-name="Path 512" d="M1062.6,1735.305l-3.913-3.913H1045.64v-11.873H1064.3v11.873h-1.7Zm-15.265-5.609h12.055l1.514,1.515V1729.7h1.7v-8.481h-15.265Z" fill="#fff"/>
      <rect id="Rectangle_19" data-name="Rectangle 19" width="4.071" height="1.696" transform="translate(1050.897 1726.304)" fill="#fff"/>
      <rect id="Rectangle_20" data-name="Rectangle 20" width="8.142" height="1.696" transform="translate(1050.897 1722.911)" fill="#fff"/>
    </g>
    <g id="Group_6" data-name="Group 6">
      <path id="Path_513" data-name="Path 513" d="M1025.491,1743.249v-3.443h-1.4V1729.7h15.719v10.11h-10.874Zm.293-5.139h1.4v1.044l1.044-1.044h9.88v-6.718h-12.327Z" fill="#fff"/>
      <rect id="Rectangle_21" data-name="Rectangle 21" width="6.785" height="1.696" transform="translate(1028.556 1733.903)" fill="#fff"/>
    </g>
    <g id="Group_8" data-name="Group 8">
      <g id="Group_7" data-name="Group 7">
        <rect id="Rectangle_22" data-name="Rectangle 22" width="1.696" height="1.696" transform="translate(1042.408 1713.03)" fill="#fff"/>
        <rect id="Rectangle_23" data-name="Rectangle 23" width="7.237" height="1.696" transform="translate(1039.638 1747.342)" fill="#fff"/>
        <path id="Path_514" data-name="Path 514" d="M1051.944,1753.084h-17.373a3.878,3.878,0,0,1-3.875-3.872v-11.1h7.415v-6.718H1030.7v-18.533a3.879,3.879,0,0,1,3.875-3.875h17.373a3.878,3.878,0,0,1,3.872,3.875v8.356h-8.48v8.481h8.48v19.516A3.876,3.876,0,0,1,1051.944,1753.084Zm-19.552-13.278v9.406a2.18,2.18,0,0,0,2.179,2.176h17.373a2.178,2.178,0,0,0,2.176-2.176v-17.82h-8.48v-11.873h8.48v-6.66a2.179,2.179,0,0,0-2.176-2.179h-17.373a2.181,2.181,0,0,0-2.179,2.179V1729.7h7.415v10.11Z" fill="#fff"/>
      </g>
    </g>
  </g>
</svg>
