<svg xmlns="http://www.w3.org/2000/svg" width="44.898" height="34.761" viewBox="0 0 44.898 34.761">
  <g id="Group_4" data-name="Group 4" transform="translate(-684.546 -1713.228)">
    <g id="Group_3" data-name="Group 3">
      <path id="Path_509" data-name="Path 509" d="M726.752,1747.989a2.7,2.7,0,0,1-.912-.159l-33.3-11.956-5.614,3.032a1.642,1.642,0,0,1-1.6-.035,1.62,1.62,0,0,1-.789-1.387v-13.755a1.623,1.623,0,0,1,.789-1.388,1.64,1.64,0,0,1,1.6-.033l5.614,3.031,33.3-11.955a2.692,2.692,0,0,1,3.6,2.535V1745.3a2.693,2.693,0,0,1-2.692,2.694ZM692.4,1733.913l34.05,12.226a.9.9,0,0,0,1.2-.844v-29.376a.9.9,0,0,0-1.2-.845L692.4,1727.3l-6.056-3.27v13.152Z" fill="#fff"/>
      <path id="Path_510" data-name="Path 510" d="M696.569,1729.393" fill="#fff"/>
      <rect id="Rectangle_17" data-name="Rectangle 17" width="12.419" height="1.796" transform="translate(696.266 1727.819) rotate(-19.748)" fill="#fff"/>
      <path id="Path_511" data-name="Path 511" d="M706.406,1746.149a3.761,3.761,0,0,1-1.277-.223l-8.354-3a3.771,3.771,0,0,1-2.274-4.824l1.092-3.042,15.453,5.55-1.092,3.041a3.776,3.776,0,0,1-3.548,2.5Zm-9.73-8.792-.485,1.352a1.975,1.975,0,0,0,1.192,2.527l8.353,3a1.975,1.975,0,0,0,2.527-1.192l.485-1.351Z" fill="#fff"/>
      <rect id="Rectangle_18" data-name="Rectangle 18" width="1.796" height="8.573" transform="translate(691.573 1726.32)" fill="#fff"/>
    </g>
  </g>
</svg>
