<svg xmlns="http://www.w3.org/2000/svg" width="35.909" height="48.845" viewBox="0 0 35.909 48.845">
  <g id="Group_11" data-name="Group 11" transform="translate(-353.007 -1709.222)">
    <path id="Path_515" data-name="Path 515" d="M370.963,1758.067l-14.256-19.976a18.589,18.589,0,0,1-3.7-10.916,17.954,17.954,0,0,1,35.909,0,18.829,18.829,0,0,1-3.7,10.913Zm0-46.919a16.047,16.047,0,0,0-16.03,16.027,16.7,16.7,0,0,0,3.342,9.8l12.688,17.779,12.687-17.781a16.693,16.693,0,0,0,3.34-9.795A16.046,16.046,0,0,0,370.963,1711.148Z" fill="#fff"/>
    <g id="Group_10" data-name="Group 10">
      <rect id="Rectangle_24" data-name="Rectangle 24" width="1.926" height="1.733" transform="translate(370 1740.502)" fill="#fff"/>
      <rect id="Rectangle_25" data-name="Rectangle 25" width="1.926" height="1.733" transform="translate(370 1743.969)" fill="#fff"/>
      <rect id="Rectangle_26" data-name="Rectangle 26" width="1.926" height="1.733" transform="translate(370 1747.435)" fill="#fff"/>
    </g>
    <path id="Path_516" data-name="Path 516" d="M370.963,1738a10.837,10.837,0,0,1-10.826-10.825h1.926a8.9,8.9,0,1,0,8.9-8.9v-1.926a10.824,10.824,0,0,1,0,21.648Z" fill="#fff"/>
    <path id="Path_517" data-name="Path 517" d="M362.5,1724.42l-1.831-.6a10.841,10.841,0,0,1,6.939-6.939l.6,1.831A8.914,8.914,0,0,0,362.5,1724.42Z" fill="#fff"/>
  </g>
</svg>
